<svg xmlns="http://www.w3.org/2000/svg" viewBox="0 0 1280 580" width="1280" height="580">
	<style>
		tspan { white-space:pre }
		.shp0 { fill: #000000 } 
	</style>
	<g id="surface1">
		<path id="Layer" fill-rule="evenodd" class="shp0" d="M227.94 10.94L227.94 568.06C227.94 574.1 223.04 579 217 579L59.99 579C53.95 579 49.05 574.1 49.05 568.06L49.05 10.94C49.05 4.9 53.95 0 59.99 0L217 0C223.04 0 227.94 4.9 227.94 10.94ZM206.05 21.88L70.93 21.88L70.93 556.79L206.05 556.79L206.05 504.82L179.03 504.82C172.99 504.82 168.09 499.92 168.09 493.88C168.09 487.84 172.99 482.94 179.03 482.94L206.05 482.94L206.05 446.4L179.03 446.4C172.99 446.4 168.09 441.5 168.09 435.46C168.09 429.42 172.99 424.52 179.03 424.52L206.05 424.52L206.05 387.97L154.41 387.97C148.38 387.97 143.47 383.07 143.47 377.03C143.47 370.99 148.38 366.09 154.41 366.09L206.05 366.09L206.05 329.88L179.03 329.88C172.99 329.88 168.09 324.97 168.09 318.93C168.09 312.89 172.99 307.99 179.03 307.99L206.05 307.99L206.05 271.34L179.03 271.34C172.99 271.34 168.09 266.44 168.09 260.4C168.09 254.36 172.99 249.46 179.03 249.46L206.05 249.46L206.05 212.91L154.41 212.91C148.38 212.91 143.47 208.01 143.47 201.97C143.47 195.93 148.38 191.03 154.41 191.03L206.05 191.03L206.05 154.16L179.03 154.16C172.99 154.16 168.09 149.26 168.09 143.22C168.09 137.18 172.99 132.28 179.03 132.28L206.05 132.28L206.05 95.73L179.03 95.73C172.99 95.73 168.09 90.83 168.09 84.79C168.09 78.75 172.99 73.85 179.03 73.85L206.05 73.85L206.05 21.88Z" />
		<path id="Layer" fill-rule="evenodd" class="shp0" d="M328.92 107.33L328.92 471.67L352.88 471.67C354.82 471.66 356.72 472.17 358.4 473.14C363.63 476.15 365.42 482.85 362.4 488.08L327.5 548.59C326.55 550.23 325.18 551.61 323.53 552.55C318.3 555.59 311.61 553.81 308.57 548.59L273.67 488.08C272.71 486.41 272.2 484.5 272.21 482.57C272.23 476.53 277.15 471.64 283.19 471.67L307.15 471.67L307.15 107.33L283.19 107.33C281.25 107.34 279.35 106.83 277.68 105.86C272.45 102.85 270.65 96.15 273.67 90.92L308.57 30.41C309.52 28.77 310.89 27.39 312.55 26.45C317.77 23.41 324.47 25.19 327.5 30.41L361.31 89.28C363 91.26 363.93 93.79 363.93 96.39C363.93 102.43 359.03 107.33 352.99 107.33L328.92 107.33ZM302.12 493.55L318.09 521.23L334.07 493.55L302.12 493.55ZM334.07 85.45L318.09 57.77L302.12 85.45L334.07 85.45Z" />
		<path id="T-CAL " fill="#ff3434" d="M465.16 397L465.16 212.68L401.8 212.68L401.8 173L569.48 173L569.48 212.68L506.12 212.68L506.12 397L465.16 397Z" />
		<path id="T-CAL " fill="#000000" d="M579.4 312.52L579.4 282.44L678.6 282.44L678.6 312.52L579.4 312.52Z" />
		<path id="T-CAL " fill="#7d7d7d" d="M821.96 401.48Q788.04 401.48 761.8 387.08Q735.88 372.68 721.48 346.44Q707.08 319.88 707.08 285Q707.08 250.44 721.8 224.2Q736.84 197.64 763.08 183.24Q789.64 168.52 823.24 168.52Q855.56 168.52 881.16 181.64L876.68 220.68Q862.92 214.6 850.12 211.4Q837.64 207.88 822.92 207.88Q788.68 207.88 770.12 229Q751.88 250.12 751.88 285Q751.88 319.88 769.8 341Q788.04 362.12 821.96 362.12Q837 362.12 849.48 358.92Q862.28 355.72 876.68 349.32L881.16 388.36Q853.32 401.48 821.96 401.48ZM1050.12 397L1031.56 343.88L949.96 343.88L931.4 397L891.72 397L971.4 173L1010.12 173L1089.8 397L1050.12 397ZM962.76 308.04L1018.76 308.04L990.92 228.04L962.76 308.04ZM1115.4 397L1115.4 173L1156.36 173L1156.36 360.52L1248.52 360.52L1248.52 397L1115.4 397Z" />
	</g>
</svg>