<svg xmlns="http://www.w3.org/2000/svg" x="0px" y="0px"
width="100" height="100"
viewBox="0 0 172 172"
style=" fill:#fa314a;"><g fill="none" fill-rule="nonzero" stroke="none" stroke-width="1" stroke-linecap="butt" stroke-linejoin="miter" stroke-miterlimit="10" stroke-dasharray="" stroke-dashoffset="0" font-family="none" font-weight="none" font-size="none" text-anchor="none" style="mix-blend-mode: normal"><path d="M0,172v-172h172v172z" fill="none"></path><g><path d="M118.68,141.04h-65.36c-12.3496,0 -22.36,-10.0104 -22.36,-22.36v-65.36c0,-12.3496 10.0104,-22.36 22.36,-22.36h65.36c12.3496,0 22.36,10.0104 22.36,22.36v65.36c0,12.3496 -10.0104,22.36 -22.36,22.36z" fill="#e74c3c"></path><path d="M113.52,132.44h-55.04c-10.449,0 -18.92,-8.471 -18.92,-18.92v-55.04c0,-10.449 8.471,-18.92 18.92,-18.92h55.04c10.449,0 18.92,8.471 18.92,18.92v55.04c0,10.449 -8.471,18.92 -18.92,18.92z" fill="#ffffff"></path><path d="M113.348,132.44h-54.696c-10.52812,0 -19.092,-8.56388 -19.092,-19.092v-54.696c0,-10.5264 8.56388,-19.092 19.092,-19.092h45.408c0.47472,0 0.86,0.38528 0.86,0.86c0,0.47472 -0.38528,0.86 -0.86,0.86h-45.408c-9.57868,0 -17.372,7.7916 -17.372,17.372v54.696c0,9.5804 7.79332,17.372 17.372,17.372h54.696c9.57868,0 17.372,-7.7916 17.372,-17.372v-24.768c0,-0.47472 0.38528,-0.86 0.86,-0.86c0.47472,0 0.86,0.38528 0.86,0.86v24.768c0,10.52812 -8.56388,19.092 -19.092,19.092zM131.58,72.24c-0.47472,0 -0.86,-0.38528 -0.86,-0.86v-3.44c0,-0.47472 0.38528,-0.86 0.86,-0.86c0.47472,0 0.86,0.38528 0.86,0.86v3.44c0,0.47472 -0.38528,0.86 -0.86,0.86zM131.58,84.28c-0.47472,0 -0.86,-0.38528 -0.86,-0.86v-6.88c0,-0.47472 0.38528,-0.86 0.86,-0.86c0.47472,0 0.86,0.38528 0.86,0.86v6.88c0,0.47472 -0.38528,0.86 -0.86,0.86z" fill="#1f212b"></path><path d="M118.68,142.76h-65.36c-13.2784,0 -24.08,-10.8016 -24.08,-24.08v-65.36c0,-13.2784 10.8016,-24.08 24.08,-24.08h65.36c13.2784,0 24.08,10.8016 24.08,24.08v65.36c0,13.2784 -10.8016,24.08 -24.08,24.08zM53.32,32.68c-11.38124,0 -20.64,9.25876 -20.64,20.64v65.36c0,11.38124 9.25876,20.64 20.64,20.64h65.36c11.38124,0 20.64,-9.25876 20.64,-20.64v-65.36c0,-11.38124 -9.25876,-20.64 -20.64,-20.64z" fill="#1f212b"></path><path d="M79.12,72.51176c0,-0.74476 0.34228,-1.4018 1.02512,-1.97456l5.60376,-7.63164c0.50052,-0.65704 1.06984,-0.98556 1.70968,-0.98556c0.50224,0 0.95632,0.1548 1.3674,0.46096c0.41108,0.30616 0.61404,0.70004 0.61404,1.18336v44.80428c0,0.52632 -0.22876,0.94428 -0.68284,1.25044c-0.4558,0.30788 -0.9804,0.46096 -1.57208,0.46096c-0.63812,0 -1.17304,-0.15308 -1.60648,-0.46096c-0.43344,-0.30616 -0.64844,-0.72412 -0.64844,-1.25044v-39.01476l-2.73308,4.27592c-0.36464,0.52632 -0.79808,0.78948 -1.2986,0.78948c-0.50224,0 -0.92192,-0.18576 -1.2642,-0.559c-0.344,-0.37152 -0.51428,-0.82216 -0.51428,-1.34848z" fill="#1f212b"></path></g></g></svg>