<?xml version="1.0" encoding="iso-8859-1"?>
<!-- Generator: Adobe Illustrator 19.0.0, SVG Export Plug-In . SVG Version: 6.00 Build 0)  -->
<svg version="1.1" id="Capa_1" xmlns="http://www.w3.org/2000/svg" xmlns:xlink="http://www.w3.org/1999/xlink" x="0px" y="0px"
	 viewBox="0 0 384 384" style="enable-background:new 0 0 384 384;" xml:space="preserve">
<g>
	<g>
		<g>
			<rect x="170.667" y="213.333" width="42.667" height="42.667"/>
			<path d="M341.333,0H42.667C19.093,0,0,19.093,0,42.667v298.667C0,364.907,19.093,384,42.667,384h298.667
				C364.907,384,384,364.907,384,341.333V42.667C384,19.093,364.907,0,341.333,0z M256,128h-85.333v42.667h42.667
				c23.573,0,42.667,19.093,42.667,42.667V256c0,23.573-19.093,42.667-42.667,42.667h-42.667C147.093,298.667,128,279.573,128,256
				V128c0-23.573,19.093-42.667,42.667-42.667H256V128z"/>
		</g>
	</g>
</g>
<g>
</g>
<g>
</g>
<g>
</g>
<g>
</g>
<g>
</g>
<g>
</g>
<g>
</g>
<g>
</g>
<g>
</g>
<g>
</g>
<g>
</g>
<g>
</g>
<g>
</g>
<g>
</g>
<g>
</g>
</svg>
